<?xml version="1.0" encoding="UTF-8"?>
<svg xmlns="http://www.w3.org/2000/svg" width="44" height="44">
  <defs>
    <path id="window" d="m 19.7487 -35.3818 v 6.0646 c 0 1.902 1.5153 3.155 2.2513 3.155 0.736 0 2.2513 -1.253 2.2513 -3.155 v -6.0646 z" fill="#251314"/>
  </defs>
  <rect width="44" height="44" fill="#251314"/>
  <g transform="scale(1 -1)">
    <rect x="13.2635" y="-44" width="17.473" height="5" fill="#e39223"/>
    <rect x="12.4855" y="-38.38" width="18.933" height="0.711" fill="#e39223"/>
    <rect x="13.2635" y="-37.049" width="17.473" height="12.554" fill="#e39223"/>
    <path d="m 12.4855 -23.875 l -0.307 0.711 19.547 0 -0.307 -0.711 z" fill="#e39223"/>
    <path d="m 13.6755 -22.544 v 10.013 l 0.777 7.865 h 0.165 v 0.364 c 0 0 0.004 0.077 -0.011 0.135 -0.018 0.066 -0.123 0.213 -0.123 0.213 -0.052 0.081 -0.113 0.186 -0.113 0.296 0 0.551 0.738 0.551 0.738 0 0 -0.11 -0.061 -0.215 -0.113 -0.296 0 0 -0.105 -0.147 -0.123 -0.213 -0.015 -0.058 -0.011 -0.135 -0.011 -0.135 v -0.364 h 0.165 l 0.777 -7.865 v -3.711 h 5.4935 v 0.938 l 0.416 7.194 h 0.165 v 0.364 c 0 0 0.004 0.077 -0.011 0.135 -0.018 0.066 -0.123 0.213 -0.123 0.213 -0.052 0.081 -0.113 0.186 -0.113 0.296 0 0.551 0.738 0.551 0.738 0 0 -0.11 -0.061 -0.215 -0.113 -0.296 0 0 -0.105 -0.147 -0.123 -0.213 -0.015 -0.058 -0.011 -0.135 -0.011 -0.135 v -0.364 h 0.165 l 0.416 -7.194 v -0.938 h 5.4935 v 3.711 l 0.777 7.865 h 0.165 v 0.364 c 0 0 0.004 0.077 -0.011 0.135 -0.018 0.066 -0.123 0.213 -0.123 0.213 -0.052 0.081 -0.113 0.186 -0.113 0.296 0 0.551 0.738 0.551 0.738 0 0 -0.11 -0.061 -0.215 -0.113 -0.296 0 0 -0.105 -0.147 -0.123 -0.213 -0.015 -0.058 -0.011 -0.135 -0.011 -0.135 v -0.364 h 0.165 l 0.777 -7.865 v -10.013 h -2.128 v 0.477 h -12.393 v -0.477 z" fill="#e39223"/>
    <rect x="15.8035" y="-21.447" width="0.89" height="4.585" fill="#251314"/>
    <rect x="17.338" y="-21.447" width="0.89" height="4.585" fill="#251314"/>
    <rect x="18.8725" y="-21.447" width="0.89" height="4.585" fill="#251314"/>
    <rect x="20.407" y="-21.447" width="0.89" height="4.585" fill="#251314"/>
    <rect x="22.703" y="-21.447" width="0.89" height="4.585" fill="#251314"/>
    <rect x="24.2375" y="-21.447" width="0.89" height="4.585" fill="#251314"/>
    <rect x="25.772" y="-21.447" width="0.89" height="4.585" fill="#251314"/>
    <rect x="27.3065" y="-21.447" width="0.89" height="4.585" fill="#251314"/>
    <use href="#window" stroke="#251314" stroke-width="1.195"/>
    <use href="#window" stroke="#e39223" stroke-width="0.685"/>
    <path d="m 18.8522 -35.9793 v 0.324 h 1.239 v 1 h 3.8176 v -1 h 1.239 v -0.324 z" fill="#251314"/>
  </g>
</svg>
